# xmcd
#
# Track frame offsets:
#	150
#	15593
#	31802
#	49415
#
# Disc length: 844 seconds
#
# Revision: 0
# Processed by: cddbd v1.5.1PL0 Copyright (c) Steve Scherf et al.
# Submitted via: dBpowerAMP V4.0
#
DISCID=28034a04
DTITLE=Gianfranco Manfredi - Università della canzonetta
DYEAR=1982
DGENRE=Blues
TTITLE0=Università
TTITLE1=60 maledetti
TTITLE2=Non metterlo più
TTITLE3=Alice non abita più qui
EXTD=
EXTT0=
EXTT1=
EXTT2=
EXTT3=
PLAYORDER=
